<svg fill="#2d4573" height="448pt" viewBox="0 0 448 448" width="448pt" xmlns="http://www.w3.org/2000/svg"><path d="m192 160c0 17.671875-14.328125 32-32 32s-32-14.328125-32-32 14.328125-32 32-32 32 14.328125 32 32zm0 0"/><path d="m352 224c0 8.835938-7.164062 16-16 16s-16-7.164062-16-16 7.164062-16 16-16 16 7.164062 16 16zm0 0"/><path d="m152 304c0 4.417969-3.582031 8-8 8s-8-3.582031-8-8 3.582031-8 8-8 8 3.582031 8 8zm0 0"/><path d="m369.921875 289.777344 2.574219-6.402344c4.660156-11.730469 7.90625-23.976562 9.671875-36.480469l.984375-6.894531h48.847656v-32h-48.847656l-.984375-6.863281c-1.765625-12.5-5.011719-24.746094-9.671875-36.480469l-2.574219-6.398438 42.214844-24.378906-16-27.695312-42.25 24.375-4.277344-5.429688c-7.820313-9.929687-16.785156-18.902344-26.707031-26.730468l-5.4375-4.277344 24.390625-42.257813-27.710938-16-24.367187 42.214844-6.402344-2.574219c-11.726562-4.667968-23.972656-7.914062-36.472656-9.671875l-6.902344-.992187v-48.839844h-32v48.839844l-6.863281.992187c-12.5 1.757813-24.746094 5.003907-36.472657 9.671875l-6.398437 2.574219-24.410156-42.214844-27.710938 16 24.390625 42.257813-5.4375 4.277344c-9.917968 7.820312-18.878906 16.78125-26.699218 26.699218l-4.277344 5.429688-42.25-24.375-16 27.695312 42.21875 24.375-2.578125 6.402344c-4.660157 11.730469-7.90625 23.976562-9.671875 36.480469l-.992188 6.894531h-48.847656v32h48.847656l.984375 6.863281c1.765625 12.5 5.011719 24.746094 9.671875 36.480469l2.574219 6.398438-42.214844 24.410156 16 27.695312 42.25-24.375 4.277344 5.429688c7.820313 9.917968 16.785156 18.878906 26.707031 26.699218l5.4375 4.277344-24.390625 42.257813 27.710938 16 24.367187-42.214844 6.402344 2.574219c11.726562 4.667968 23.972656 7.914062 36.472656 9.671875l6.902344 1.03125v48.800781h32v-48.800781l6.863281-.992188c12.5-1.757812 24.746094-5.003906 36.472657-9.671875l6.398437-2.574218 24.371094 42.214843 27.710937-16-24.390625-42.253906 5.4375-4.28125c9.933594-7.828125 18.910157-16.804687 26.738281-26.738281l4.277344-5.429688 42.25 24.375 16-27.695312zm-225.921875 38.222656c-13.253906 0-24-10.746094-24-24s10.746094-24 24-24 24 10.746094 24 24-10.746094 24-24 24zm16-120c-26.507812 0-48-21.492188-48-48s21.492188-48 48-48 48 21.492188 48 48c-.027344 26.5-21.5 47.972656-48 48zm176 48c-17.671875 0-32-14.328125-32-32s14.328125-32 32-32 32 14.328125 32 32-14.328125 32-32 32zm0 0"/><path d="m448 16c0 8.835938-7.164062 16-16 16s-16-7.164062-16-16 7.164062-16 16-16 16 7.164062 16 16zm0 0"/><path d="m48 424c0 13.253906-10.746094 24-24 24s-24-10.746094-24-24 10.746094-24 24-24 24 10.746094 24 24zm0 0"/></svg>